<svg id="Capa_1" data-name="Capa 1" xmlns="http://www.w3.org/2000/svg" width="99.01" height="99.01" viewBox="0 0 99.01 99.01"><title>icon-mask</title><path d="M53.52.43l-.93,0c-7.72,0-7,5.59-.87,6.78l.4.06c15.18,2.56,28,14,28,29.85A30.2,30.2,0,0,1,49.94,67h-.26a30.18,30.18,0,0,1-10-1.81,29.82,29.82,0,0,1,1.55-3.66l0,0c.29-.59.62-1.18,1-1.77l.08-.14q.53-.91,1.14-1.83l.07-.11c.37-.55.76-1.1,1.17-1.66l.25-.33c.45-.59.91-1.19,1.41-1.78l.12-.14c.45-.54.93-1.08,1.42-1.62l.41-.45c.55-.59,1.11-1.18,1.71-1.78s1.1-1.14,1.62-1.71l.43-.49q.59-.67,1.12-1.34l.33-.41q.66-.85,1.24-1.7l.23-.35q.46-.7.88-1.4l.28-.49c.29-.51.56-1,.81-1.52l.1-.19c.27-.57.52-1.14.74-1.71l.17-.44q.25-.67.46-1.34l.13-.42c.17-.56.31-1.12.43-1.68l0-.19c.1-.5.19-1,.25-1.49,0-.15,0-.29.06-.44q.08-.7.12-1.4c0-.08,0-.17,0-.25,0-.55,0-1.09,0-1.62,0-.11,0-.22,0-.33q0-.66-.11-1.31c0-.12,0-.25,0-.37a20.86,20.86,0,0,0-.65-3.08l-.1-.34q-.2-.63-.43-1.25L58,22.44q-.29-.73-.63-1.44l-.09-.17q-.3-.62-.65-1.21l-.17-.29a22.86,22.86,0,0,0-1.78-2.59l-.18-.22q-.43-.52-.88-1l-.18-.2c-.37-.39-.74-.77-1.14-1.14l0,0c-.37-.35-.75-.68-1.15-1l-.25-.21q-.57-.46-1.17-.89l-.1-.07q-.66-.47-1.36-.89L48,10.91q-.59-.35-1.19-.67l-.3-.16a26.31,26.31,0,0,0-3-1.3l-.35-.13q-.65-.23-1.31-.42l-.28-.08q-.79-.22-1.6-.39L39.7,7.7q-.67-.14-1.35-.24l-.43-.06c-.51-.07-1-.12-1.54-.16h-.12c-.55,0-1.1-.05-1.66-.06h-.51l-1,0-.57,0-1.05.1-.51.06c-.51.07-1,.15-1.53.24l-.26.06c-.43.09-.86.18-1.29.29l-.58.16-1,.29-.62.21-1,.36-.6.23c-.39.16-.78.33-1.16.51l-.39.18c-.5.24-1,.5-1.51.78l-.52.3c-.34.2-.68.4-1,.61l-.59.38-1,.65-.58.41c-.35.26-.7.53-1,.81l-.45.36q-.73.61-1.46,1.27l-.33.32c-.37.35-.75.72-1.12,1.09l-.5.53q-.47.5-.94,1l-.51.59c-.32.38-.63.76-.95,1.16l-.44.55c-.45.59-.9,1.19-1.34,1.83A49.18,49.18,0,0,0,0,50,49.82,49.82,0,0,0,50,99.59h.2c.78,0,1.55,0,2.33-.06l.59,0c.82,0,1.63-.11,2.45-.2l.16,0c.78-.09,1.56-.2,2.33-.32l.49-.08c.83-.14,1.65-.3,2.46-.48l.08,0c.8-.18,1.6-.39,2.39-.61l.35-.1c.83-.24,1.65-.49,2.47-.77h0c.82-.28,1.62-.59,2.42-.91l.24-.1q1.22-.5,2.42-1.06h.06A49.58,49.58,0,0,0,53.52.43ZM70.45,90.85h0l-.73.34a46.05,46.05,0,0,1-9,3.13c-13.27-1.48-24.38-11.54-22-25.22a34.09,34.09,0,0,0,11,1.93h.29A34.3,34.3,0,0,0,84.13,37.09a31.76,31.76,0,0,0-9.46-22.71A38.82,38.82,0,0,0,61.53,5.76a45.54,45.54,0,0,1,8.92,85.09Z"/></svg>